# xmcd
#
# Track frame offsets: 
#        150
#        34636
#        57876
#        114946
#        169034
#        187636
#        229689
#        258854
#        293699
#
# Disc length: 4417 seconds
#
# Revision: 2
# Processed by: cddbd v1.5.1PL0 Copyright (c) Steve Scherf et al.
# Submitted via: ExactAudioCopy v0.95a5
#
DISCID=65113f09
DTITLE=Stevie Ray Vaughan And Double Trouble - 06-17-1985, Red Rocks A
DTITLE=mphitheater, Morrison, CO
DYEAR=1985
DGENRE=Rock
TTITLE0=Ain't Giving Up On Love
TTITLE1=Pride And Joy
TTITLE2=Voodoo Child
TTITLE3=Tin Pan Alley
TTITLE4=Little Sister
TTITLE5=Texas Flood
TTITLE6=Come On
TTITLE7=Little Wing
TTITLE8=Third Stone From the Sun
EXTD=
EXTT0=
EXTT1=
EXTT2=
EXTT3=
EXTT4=
EXTT5=
EXTT6=
EXTT7=
EXTT8=
PLAYORDER=
